<?xml version="1.0" encoding="utf-8"?>
<svg xmlns="http://www.w3.org/2000/svg" viewBox="0 0 147 133">
  <path d="M 25.043 0 L 122.624 0 C 136.183 0 147.134 10.992 147.084 24.551 L 146.774 108.181 C 146.724 121.74 135.691 132.732 122.132 132.732 L 24.551 132.732 C 10.992 132.732 0.041 121.74 0.091 108.181 L 0.401 24.551 C 0.451 10.992 11.484 0 25.043 0 Z M 73.376 8.983 C 34.745 8.983 3.427 42.317 3.427 83.437 C 3.427 124.557 34.745 124.94 73.376 124.94 C 112.007 124.94 143.325 124.557 143.325 83.437 C 143.325 42.317 112.007 8.983 73.376 8.983 Z" style="stroke: rgb(0, 0, 0); stroke-opacity: 0; fill: rgb(21, 235, 183);">
    <title>Fondo</title>
  </path>
  <path d="M 133.996 83.441 C 133.996 101.259 130.188 112.368 119.241 124.067 C 108.246 135.72 88.977 125.906 72.237 125.906 C 55.497 125.906 38.506 135.72 27.511 124.067 C 16.564 112.368 12.756 101.259 12.756 83.441 C 12.756 65.623 19.564 49.514 30.511 37.815 C 41.506 26.162 56.636 18.917 73.376 18.917 C 90.116 18.917 105.246 26.162 116.241 37.815 C 127.188 49.514 133.996 65.623 133.996 83.441 Z" style="stroke: rgb(0, 0, 0); fill: rgb(21, 235, 183); stroke-opacity: 0; visibility: hidden;"/>
  <path style="filter: none; paint-order: stroke; fill: rgb(255, 255, 255); visibility: hidden;" d="M 73.082 23.998 L 95.294 67.535 L 85.422 67.535 L 73.082 41.867 L 60.741 67.535 L 50.869 67.535 L 73.003 23.845 Z M 88.635 75.396 L 98.635 75.393 L 121.224 119.325 L 110.878 119.283 Z M 90.702 119.516 L 83.407 102.761 L 89.927 95.511 L 101.166 119.516 Z M 68.376 72.192 L 73.376 63.392 L 78.376 72.192 L 78.376 119.526 L 68.376 119.526 Z M 56.864 95.518 L 63.407 102.768 L 56.087 119.523 L 45.587 119.523 Z M 35.65 119.318 L 25.651 119.287 L 47.791 75.692 L 57.791 75.692 Z"/>
  <path d="M 134.015 83.63 C 134.015 101.448 130.207 112.557 119.26 124.256 C 108.265 135.909 88.996 126.095 72.256 126.095 C 55.516 126.095 38.525 135.909 27.53 124.256 C 16.583 112.557 12.775 101.448 12.775 83.63 C 12.775 65.812 19.583 49.703 30.53 38.004 C 41.525 26.351 56.655 19.106 73.395 19.106 C 90.135 19.106 105.265 26.351 116.26 38.004 C 127.207 49.703 134.015 65.812 134.015 83.63 Z M 73.022 24.034 L 50.888 67.724 L 60.76 67.724 L 73.101 42.056 L 85.441 67.724 L 95.313 67.724 L 73.101 24.187 L 73.022 24.034 Z M 110.897 119.472 L 121.243 119.514 L 98.654 75.582 L 88.654 75.585 L 110.897 119.472 Z M 101.185 119.705 L 89.946 95.7 L 83.426 102.95 L 90.721 119.705 L 101.185 119.705 Z M 68.395 119.715 L 78.395 119.715 L 78.395 72.381 L 73.395 63.581 L 68.395 72.381 L 68.395 119.715 Z M 45.606 119.712 L 56.106 119.712 L 63.426 102.957 L 56.883 95.707 L 45.606 119.712 Z M 57.81 75.881 L 47.81 75.881 L 25.67 119.476 L 35.669 119.507 L 57.81 75.881 Z" style="fill: rgb(21, 235, 183); stroke-dashoffset: -45px; stroke-miterlimit: 11.07; stroke: rgb(21, 235, 183); paint-order: stroke; stroke-opacity: 0;"/>
</svg>